<svg t="1774670230797" class="icon" viewBox="0 0 1024 1024" version="1.1" xmlns="http://www.w3.org/2000/svg" p-id="1708" width="200" height="200"><path d="M614.608342 247.926755h-52.502137l0.416684-110.212818c-36.459817 20.834181-69.169481 60.210783-69.377823 105.420956 0 47.293591 27.084435 88.336928 66.66938 108.337742V832.95056c0 15.833978 6.458596 30.209563 16.667344 40.626653 9.792065 9.792065 23.125941 16.042319 38.126552 16.667344V247.926755z" fill="#BDBDBD" p-id="1709"></path><path d="M674.1941 348.972533c37.084842-20.834181 61.877518-60.419125 61.877517-105.83764 0-45.001831-32.501322-84.378433-69.169481-105.420956l-0.416683 110.212818H614.608342v642.109461h2.500102c31.459613 0 57.293998-25.626043 57.293998-57.293998l-0.208342-483.769685zM419.600407 150.422787c0-10.417091-8.333672-18.750763-18.750763-18.750763s-18.750763 8.333672-18.750763 18.750763v376.890336c0 10.417091 8.333672 18.750763 18.750763 18.750763s18.750763-8.333672 18.750763-18.750763V150.422787z" fill="#757575" p-id="1710"></path><path d="M347.51414 512.520855c-3.541811 18.125738-8.125331 33.33469-21.250864 44.376805v310.429298c46.460224 33.959715 95.212208 42.501729 149.381078 0l0.208342-310.429298c-13.542218-11.250458-18.125738-25.626043-21.459207-44.168464l-106.879349-0.208341z" fill="#D32F2F" p-id="1711"></path><path d="M326.263276 616.066734v17.292371h149.381078v-17.292371h-149.381078z m0 47.08525v17.29237h149.381078v-17.29237h-149.381078z" fill="#FF8A80" p-id="1712"></path></svg>
